<?xml version="1.0" encoding="utf-8"?>
<svg width="1490" height="1490" viewBox="0 0 1490 1490" fill="none" xmlns="http://www.w3.org/2000/svg">
  <defs>
    <linearGradient id="gradient_1" gradientUnits="userSpaceOnUse" x1="1483.792" y1="0" x2="12.417" y2="1490">
      <stop offset="0" stop-color="#266BEA" />
      <stop offset="1" stop-color="#24178B" />
    </linearGradient>
    <filter color-interpolation-filters="sRGB" x="-276" y="-929" width="278" height="931" id="filter_2">
      <feFlood flood-opacity="0" result="BackgroundImageFix_1" />
      <feColorMatrix type="matrix" values="0 0 0 0 0 0 0 0 0 0 0 0 0 0 0 0 0 0 1 0" in="SourceAlpha" />
      <feOffset dx="38" dy="38" />
      <feGaussianBlur stdDeviation="25" />
      <feColorMatrix type="matrix" values="0 0 0 0 0 0 0 0 0 0 0 0 0 0 0 0 0 0 0.251 0" />
      <feBlend mode="normal" in2="BackgroundImageFix_1" result="Shadow_2" />
      <feBlend mode="normal" in="SourceGraphic" in2="Shadow_2" result="Shape_3" />
      <feColorMatrix type="matrix" values="0 0 0 0 0 0 0 0 0 0 0 0 0 0 0 0 0 0 1 0" in="SourceAlpha" result="HardAlpha_4" />
      <feOffset dx="-38" dy="-38" />
      <feGaussianBlur stdDeviation="25" />
      <feComposite operator="arithmetic" k2="-1" k3="1" in2="HardAlpha_4" />
      <feColorMatrix type="matrix" values="0 0 0 0 0 0 0 0 0 0 0 0 0 0 0 0 0 0 0.251 0" />
      <feBlend mode="normal" in2="Shape_3" result="InnerShadow_5" />
    </filter>
    <filter color-interpolation-filters="sRGB" x="-276" y="-655.556" width="278" height="657.556" id="filter_3">
      <feFlood flood-opacity="0" result="BackgroundImageFix_1" />
      <feColorMatrix type="matrix" values="0 0 0 0 0 0 0 0 0 0 0 0 0 0 0 0 0 0 1 0" in="SourceAlpha" />
      <feOffset dx="38" dy="38" />
      <feGaussianBlur stdDeviation="25" />
      <feColorMatrix type="matrix" values="0 0 0 0 0 0 0 0 0 0 0 0 0 0 0 0 0 0 0.251 0" />
      <feBlend mode="normal" in2="BackgroundImageFix_1" result="Shadow_2" />
      <feBlend mode="normal" in="SourceGraphic" in2="Shadow_2" result="Shape_3" />
      <feColorMatrix type="matrix" values="0 0 0 0 0 0 0 0 0 0 0 0 0 0 0 0 0 0 1 0" in="SourceAlpha" result="HardAlpha_4" />
      <feOffset dx="-38" dy="-38" />
      <feGaussianBlur stdDeviation="25" />
      <feComposite operator="arithmetic" k2="-1" k3="1" in2="HardAlpha_4" />
      <feColorMatrix type="matrix" values="0 0 0 0 0 0 0 0 0 0 0 0 0 0 0 0 0 0 0.251 0" />
      <feBlend mode="normal" in2="Shape_3" result="InnerShadow_5" />
    </filter>
    <filter color-interpolation-filters="sRGB" x="-276" y="-276" width="278" height="278" id="filter_4">
      <feFlood flood-opacity="0" result="BackgroundImageFix_1" />
      <feColorMatrix type="matrix" values="0 0 0 0 0 0 0 0 0 0 0 0 0 0 0 0 0 0 1 0" in="SourceAlpha" />
      <feOffset dx="38" dy="38" />
      <feGaussianBlur stdDeviation="25" />
      <feColorMatrix type="matrix" values="0 0 0 0 0 0 0 0 0 0 0 0 0 0 0 0 0 0 0.251 0" />
      <feBlend mode="normal" in2="BackgroundImageFix_1" result="Shadow_2" />
      <feBlend mode="normal" in="SourceGraphic" in2="Shadow_2" result="Shape_3" />
      <feColorMatrix type="matrix" values="0 0 0 0 0 0 0 0 0 0 0 0 0 0 0 0 0 0 1 0" in="SourceAlpha" result="HardAlpha_4" />
      <feOffset dx="-38" dy="-38" />
      <feGaussianBlur stdDeviation="25" />
      <feComposite operator="arithmetic" k2="-1" k3="1" in2="HardAlpha_4" />
      <feColorMatrix type="matrix" values="0 0 0 0 0 0 0 0 0 0 0 0 0 0 0 0 0 0 0.251 0" />
      <feBlend mode="normal" in2="Shape_3" result="InnerShadow_5" />
    </filter>
  </defs>
  <g>
    <g>
      <g fill="url(#gradient_1)">
        <path d="M745 0L745 0C1156.51 0 1490 333.492 1490 745L1490 745C1490 1156.51 1156.51 1490 745 1490L745 1490C333.492 1490 0 1156.51 0 745L0 745C0 333.492 333.492 0 745 0L745 0Z" />
        <path d="M1490 745C1490 333.492 1156.51 0 745 0C333.492 0 0 333.492 0 745C0 1156.51 333.492 1490 745 1490C1156.51 1490 1490 1156.51 1490 745ZM478.359 113.799Q605.574 59.9999 745 59.9999Q884.426 60 1011.64 113.799Q1134.56 165.783 1229.39 260.611Q1324.22 355.439 1376.2 478.359Q1430 605.573 1430 745Q1430 884.426 1376.2 1011.64Q1324.22 1134.56 1229.39 1229.39Q1134.56 1324.22 1011.64 1376.2Q884.427 1430 745 1430Q605.574 1430 478.359 1376.2Q355.439 1324.22 260.611 1229.39Q165.783 1134.56 113.799 1011.64Q59.9999 884.427 59.9999 745Q60 605.574 113.799 478.359Q165.783 355.439 260.611 260.611Q355.439 165.783 478.359 113.799Z" fill="#4780DE" fill-rule="evenodd" />
      </g>
    </g>
    <g transform="translate(184 258)">
      <path d="M230.069 0L230.069 0C256.544 0 278 21.4559 278 47.931L278 700.931C278 828.012 175.012 931 47.931 931L47.931 931C21.4559 931 0 909.544 0 883.069L-3.05176e-05 230.069C0 102.988 102.988 0 230.069 0L230.069 0Z" fill="#FFFFFF" filter="url(#filter_2)" transform="matrix(0.866 0.5 -0.5 0.866 465.5 0)" />
      <path d="M98.1177 6.10352e-05L98.1177 6.10352e-05C197.477 0 278 80.5226 278 179.882L278 427.487C278 554.568 175.012 657.556 47.931 657.556L47.931 657.556C21.4559 657.556 0 636.1 0 609.625L0 98.1177C0 43.9214 43.9214 0 98.1177 6.10352e-05L98.1177 6.10352e-05Z" fill="#FFFFFF" filter="url(#filter_3)" transform="matrix(0.866 0.5 -0.5 0.866 721.319 240.371)" />
      <path d="M139 -6.10352e-05C215.778 0 278 62.2219 278 139C278 215.778 215.778 278 139 278C62.222 278 0 215.778 0 139C0 62.2219 62.2219 -6.10352e-05 139 -6.10352e-05L139 -6.10352e-05Z" fill="#FFFFFF" filter="url(#filter_4)" transform="matrix(0.866 0.5 -0.5 0.866 923.5 537)" />
    </g>
  </g>
</svg>